Patient4_TMGait_0pt6_02_right_23_EMG.mot
version=1
nRows=37
nColumns=33
inDegrees=no
endheader
time	1LAddLong	2LGlutMax	3LGlutMed	4LIliopsoas	5LSemiMemb	6LBicFemLong	7LRecFem	8LVastMed	9LVastLat	10LGasMed	11LTibAnt	12lTibPost	13LPeroneusLong	14LSol	15LExtDigLong	16LFlexDigLong	17RAddLong	18RGlutMax	19RGlutMed	20RIliopsoas	21RSemiMemb	22RBicFemLong	23RRecFem	24RVastMed	25RVastLat	26RGasMed	27RTibAnt	28RTibPost	29RPeroneusLong	30RSol	31RExtDigLong	32RFlexDigLong
28.007	0.007477	-0.60959	0.089874	-0.023499	0.004425	-0.014038	-0.36331	0.022278	0.04837	-0.096741	-0.079651	0.009155	-0.16327	-0.036316	-0.11993	-0.010834	-0.069427	-0.78018	0.060577	0.17212	0.47134	-0.32745	-0.31952	0.077209	-0.22217	-0.073853	-0.046997	-0.005493	-2.4321	-0.54901	0.000916	-0.00824
28.008	0.003967	-0.49576	0.096741	-0.016174	0.014191	-0.006714	-0.47653	0.014496	0.022583	-0.09552	-0.17593	0.00824	-0.15198	-0.071411	-0.026855	-0.00473	-0.099182	-0.74081	0.035706	0.063477	0.68787	-0.48477	-0.25238	-0.005188	-0.26276	-0.13107	-0.07309	-0.013428	-1.342	-0.26581	-0.002441	-0.022888
28.009	-0.001526	-0.39734	0.069275	-0.002441	-0.010376	0.001373	-0.60303	0.015259	0.018768	-0.084839	-0.10742	0.009766	-0.16022	-0.077362	0.025482	-0.009003	-0.067749	-0.70969	-0.53589	0.01709	0.59403	-0.75058	-0.020447	-0.14648	-0.28229	-0.16815	-0.094604	-0.022736	1.6692	-0.087891	-0.000458	-0.024567
28.01	0.003204	-0.30914	0.074921	0.011444	-0.017395	-0.008545	-0.61661	0.005035	0.011597	-0.081482	0.07309	-0.001068	-0.18341	-0.069885	0.031281	-0.009308	-0.049286	-0.58792	-0.45517	-0.14053	0.41641	-0.86792	0.081635	-0.22064	-0.31845	0.050201	-0.23132	-0.027771	1.9919	-0.18417	0.000763	-0.032654
28.011	0.001526	-0.26932	0.076141	0.001831	0.000916	-0.010529	-0.56152	0.001831	-0.005188	-0.055237	0.074005	0.006256	-0.17471	-0.063019	-0.025177	0.00061	-0.015106	-0.65521	0.078735	-0.22247	0.032959	-0.87174	0.20859	-0.13031	-0.32608	0.066833	-0.033569	-0.033417	-0.46585	-0.046234	0.000153	-0.029755
28.012	-0.002441	-0.27283	0.060577	0.012054	0.007782	-0.001526	-0.48798	-0.00473	-0.00824	-0.04303	0.086517	0.01709	-0.15839	-0.052643	-0.092163	0.000153	-0.028992	-0.76782	-0.1915	-0.13611	0.036163	-0.53345	0.29846	0.009613	-0.24582	0.063934	0.07843	-0.034485	-1.2321	-0.13397	-0.000916	-0.035706
28.013	-0.006866	-0.25848	0.065613	0.005646	0.006256	0.010986	-0.29388	-0.00946	0.016937	-0.032349	-0.14893	0.006409	-0.15259	-0.069275	-0.10162	0.000916	-0.040283	-0.83618	-0.33539	-0.16373	0.30853	-0.24078	0.19745	0.047607	-0.084839	0.090637	0.058289	-0.039978	0.93048	-0.11978	0.003052	-0.03891
28.014	-0.005646	-0.23377	0.056305	-0.012665	0.010681	0.00412	-0.16434	-0.001068	0.014038	-0.031281	-0.090485	0.007629	-0.15717	-0.068512	-0.06546	-0.007629	0.041809	-0.79361	-0.63446	-0.095825	0.4538	-0.26245	0.29312	0.085754	-0.016327	0.063782	0.13016	-0.01709	0.87952	-0.043335	0.001221	-0.036621
28.015	-0.005646	-0.14587	0.04303	-0.010529	0.001984	-0.011139	-0.041046	0.006104	0.005341	-0.024261	-0.029449	0.00351	-0.18051	-0.040894	0.091095	-0.007172	0.075378	-0.746	-0.63583	-0.19226	0.32288	-0.31982	0.47012	0.027008	-0.054932	0.04837	0.018158	0.08728	0.49759	-0.10849	-0.001678	-0.032654
28.016	-0.008087	-0.061493	0.021515	0.00885	-0.007324	-0.020447	0.084534	0.003967	-0.001526	-0.037537	0.021667	0.007324	-0.16602	-0.09964	0.17792	-0.00824	0.0177	-0.79742	-0.24963	-0.31387	-0.327	-0.080261	0.58014	-0.10452	-0.089111	0.022736	-0.11231	0.008392	1.1116	0.034485	0.000153	-0.024872
28.017	-0.000153	0.020599	-0.009766	-0.006866	0.005188	-0.010986	0.18188	0.006256	-0.000458	-0.028839	0.055847	0.007477	-0.1532	-0.11597	0.098572	-0.017548	-0.11154	-0.97168	0.082703	-0.14587	-1.0229	-0.15442	0.56168	-0.001221	-0.062256	0.016937	-0.030518	-0.021973	0.51621	0.040741	-0.001831	-0.031128
28.018	-0.004425	0.078125	0.007324	-0.028992	0.000763	-0.013275	0.21698	-0.009613	-0.007324	-0.053101	-0.00946	0.008392	-0.10941	-0.086365	-0.005646	-0.007629	-0.12268	-1.2578	-0.64133	-0.046082	-0.82047	-0.44846	0.68909	0.17624	0.044556	0.016632	0.18036	-0.016327	-0.55054	-0.041351	-0.005035	-0.029449
28.019	-0.005188	0.18799	-0.013428	0.000763	0.005951	0.002594	0.24628	-0.00351	-0.010681	-0.04715	-0.007172	0.001526	-0.097504	-0.075684	-0.003967	-0.004425	-0.065308	-1.2587	-0.45883	0.35736	-0.0737	-0.75836	0.71442	0.21271	0.42496	-0.033264	0.20508	-0.014954	-0.71884	-0.1738	-0.002289	-0.028992
28.02	-0.001984	0.24338	0.002289	0.010376	0	-0.019073	0.32486	-0.004425	-0.02243	-0.029907	-0.034485	0.007324	-0.15579	-0.049133	-0.044861	-0.03006	-0.032043	-1.2598	0.17578	0.47318	0.29327	-0.96573	0.88623	0.23972	0.4126	-0.06958	0.044098	-0.02182	0.83145	0.020905	-0.001984	-0.032349
28.021	-0.010071	0.23346	-0.015259	0.005341	0.001984	-0.004883	0.31052	0.001831	-0.049133	0.006866	-0.023041	0.002747	-0.16739	-0.042725	-0.071411	-0.022125	-0.049286	-1.4235	-0.097351	0.47882	0.41763	-1.1206	1.066	0.18478	0.19501	-0.07843	0.074463	-0.003204	0.76111	0.21057	-0.00061	-0.041351
28.022	-0.015564	0.18601	-0.037537	0.009003	0.001068	0.006104	0.242	0.001984	-0.045471	0.002136	-0.048218	0.011292	-0.15427	-0.044403	-0.074921	-0.028839	-0.046997	-1.6417	-0.24185	0.29205	0.33905	-0.79071	1.216	0.063782	-0.035248	-0.065765	0.17136	-0.023499	-1.9263	0.3598	-0.000916	-0.034637
28.023	-0.023346	0.11353	-0.07309	0.014038	-0.003052	0.004425	0.27176	0.021973	-0.046234	0.003204	-0.004272	0.001221	-0.11795	-0.052185	-0.046844	-0.025787	-0.067139	-1.7427	-0.061493	0.035553	0.19913	-0.27329	1.1955	-0.16769	-0.24536	-0.085754	0.021362	0.036469	-1.6606	0.36728	-0.010986	-0.02533
28.024	-0.016785	0.070648	-0.089722	-0.002594	-0.006866	0.007782	0.31311	0.022125	-0.030823	0.022888	-0.014801	-0.002747	-0.12512	-0.050964	0.005341	-0.029144	-0.087891	-1.8935	-0.29419	-0.1326	0.068359	-0.088348	0.70374	0.005646	-0.36545	-0.11902	-0.16174	0.05188	-1.1868	0.37491	-0.010681	-0.023804
28.025	-0.024109	0.014954	-0.12085	-0.011292	-0.004883	0.003204	0.45715	0.019531	-0.02121	0.00824	-0.038452	-0.004272	-0.12863	-0.069275	-0.04303	-0.04364	-0.080109	-2.0786	-0.24155	-0.23621	0.069275	-0.3923	0.27557	0.29343	-0.56412	0.011292	-0.040894	-0.003204	1.3582	0.43488	-0.00473	-0.027008
28.026	-0.023193	-0.025482	-0.10712	-0.000458	-0.004883	0.001221	0.4599	0.003204	-0.014038	0.005493	-0.068359	-0.00412	-0.14877	-0.1207	-0.079346	-0.031128	-0.033417	-2.202	-0.22263	-0.22263	0.081329	-0.50659	0.31845	0.38055	-0.47501	0.072784	0.080261	-0.015564	1.1794	0.6134	-0.001831	-0.026855
28.027	-0.019073	-0.092468	-0.12375	0.02533	0.002441	-0.007324	0.38116	0.01236	-0.025482	0.005035	-0.10284	-0.002747	-0.1062	-0.044403	-0.059204	-0.03891	0.041504	-2.2624	-0.16281	-0.16892	0.037994	-0.25452	0.65781	0.25818	-0.32898	0.016937	0.072479	0.003204	0.79269	0.42023	-0.005646	-0.034943
28.028	-0.018005	-0.075378	-0.087891	0.013885	-0.001221	0.005646	0.25406	0.016785	-0.035095	0.020142	-0.22598	-0.004578	-0.15305	0.000153	-0.00351	-0.043488	0.04715	-2.3122	0.057983	-0.11398	-0.008698	-0.65552	0.75638	0.083771	-0.24429	-0.001373	-0.12009	0.01297	1.7654	-0.072021	-0.00885	-0.027618
28.029	-0.014648	-0.16495	-0.054169	-0.01297	0.003815	0.027924	0.1004	0.027924	-0.039673	0.10117	-0.17242	-0.000763	-0.17014	0.019379	0.08316	-0.036469	0.01297	-2.3375	-0.24002	-0.003204	-0.027008	-0.63095	0.27298	-0.19058	-0.1355	-0.003967	0.018616	-0.027924	2.3413	-0.28534	0.00061	-0.039215
28.03	-0.015564	-0.17044	-0.10208	-0.018768	0.00061	0.014801	-0.00061	0.025635	-0.043488	0.1622	-0.090179	-0.008392	-0.11826	0.039978	0.097809	-0.051117	0.013885	-2.3026	-0.43411	0.13367	0.041962	-0.94299	0.23041	-0.29739	-0.081482	0.047913	0.16998	-0.044556	0.26077	-0.37308	-0.00351	-0.017853
28.031	-0.010529	-0.17944	-0.084839	0.001068	0.004425	0.015106	-0.058289	0.014343	-0.041199	0.12741	0.11459	-0.001068	-0.002289	0.06958	0.03479	-0.036316	0.037689	-2.1771	-0.24048	-0.066681	-0.024109	-1.077	0.23422	-0.17273	0.082703	0.067139	0.20081	0.0383	-1.0365	-0.5069	-0.002441	-0.015717
28.032	-0.014191	-0.1619	-0.088501	-0.006714	0.007019	0.006561	-0.059357	0.011597	-0.035858	0.067902	0.32791	-0.001984	-0.020142	0.06012	0.49286	-0.050201	0.022736	-2.0773	0.056152	-0.18845	-0.030823	-0.86273	0.23743	-0.018616	0.14572	0.060577	0.031128	0.068207	-1.4905	-0.58929	-0.004883	-0.010986
28.033	-0.005341	-0.16007	-0.074921	-0.004272	0.00351	0.001526	-0.032196	0.005798	-0.036621	0.058746	0.11719	-0.006866	-0.1445	0.10239	0.35736	-0.045776	0.005188	-1.8861	0.55832	-0.12878	-0.051575	-0.33615	0.33539	0.13458	-0.003204	0.02655	0.21881	-0.00351	-1.3191	-0.17014	-0.001526	-0.028992
28.034	0.004272	-0.17425	-0.065765	-0.032806	0.006256	0.006256	-0.017853	0.000458	-0.026093	0.046539	0.11032	0.002594	-0.18738	0.11902	0.18188	-0.048523	-0.026245	-1.7798	-0.11871	0.037689	-0.093994	0.30487	0.35523	0.057678	-0.059204	0.021515	0.15823	-0.032806	-1.4839	-0.10025	0.000916	-0.014191
28.035	0.015717	-0.21637	-0.19577	-0.005646	0.004272	0.006409	0.0177	-0.010376	-0.02533	0.003815	0.30014	0.002136	-0.20554	0.19241	0.01358	-0.050812	-0.019531	-1.609	0.018158	0.2359	0.001068	0.33508	0.28046	0.21194	-0.047455	0.030823	-0.18906	-0.024261	0.25589	-0.33157	-0.00473	-0.001526
28.036	0.009155	-0.22324	-0.17425	-0.014343	0.00473	0.000153	-0.010223	-0.018768	-0.027924	0.035706	0.34195	0.003815	-0.1741	0.22553	0.20844	-0.045013	-0.002747	-1.4938	0.19928	0.24353	-0.066833	0.14374	0.11276	0.41489	-0.054169	0.03067	-0.35187	-0.015106	2.0473	-0.48645	-0.00412	0.000458
28.037	0.010071	-0.28519	-0.14145	-0.005341	0.009308	0.010223	-0.010223	-0.011597	-0.022583	0.043335	0.26718	0.002747	-0.1561	0.12375	-0.23697	-0.036316	-0.011139	-1.3669	-0.14145	0.078125	-0.4335	0.43274	0.060883	0.30045	-0.035858	0.0177	0.019989	-0.013733	-0.013123	-0.45776	-0.005951	-0.010071
28.038	0.009155	-0.34531	-0.14069	-0.005341	0.022583	-0.002136	-0.037079	-0.014496	-0.034637	0.032501	0.074158	0.006714	-0.097198	-0.035706	0.2945	-0.039368	-0.006409	-1.2596	-0.11185	0.079041	-0.40863	0.58807	-0.11154	0.21591	0.10117	-0.007629	0.24048	-0.015564	-0.85388	-0.32486	-0.004272	-0.010071
28.039	0.004425	-0.3479	-0.10132	-0.000305	0.010223	0.013885	-0.064392	-0.010681	-0.021057	0.082855	-0.24674	0.001984	0.017395	-0.1738	-0.020905	-0.037537	0.001526	-1.1337	-0.54214	0.055695	-0.1506	0.448	-0.21164	-0.086212	0.12573	-0.021973	0.29678	-0.01297	-0.65109	-0.11643	-0.004883	-0.01358
28.04	-0.005798	-0.33508	-0.11643	0.02182	0.014954	0.010376	-0.13123	-0.008545	-0.021667	0.050201	-0.34561	0.008087	-0.045319	-0.13168	-0.3865	-0.036774	-0.037994	-0.97351	-0.22507	-0.09613	-0.28046	0.30807	-0.097046	-0.22064	0.09964	-0.010681	0.3627	-0.016327	0.37949	0.13489	-0.00061	-0.020905
28.041	-0.000153	-0.32883	-0.11963	-0.007629	0.015869	0.002136	-0.03479	-0.010681	0.000916	0.07019	0.023956	0.007477	-0.10956	-0.063629	-0.53482	-0.042725	-0.058289	-0.67764	0.31311	-0.16327	0.20935	-0.076599	0.084991	-0.21133	0.089874	-0.018768	0.28946	-0.021515	1.133	0.41626	-0.00412	-0.010681
28.042	-0.005798	-0.30609	-0.11444	-0.000763	0.012207	0.000153	0.13214	-0.005341	-0.001526	0.05722	0.089264	0.007935	-0.12466	0.057526	-0.50995	-0.042419	-0.020599	-0.36072	0.17654	-0.14954	0.39703	-0.59235	0.035706	-0.1622	0.10498	0.006866	0.17288	-0.020142	1.3834	0.30609	-0.001221	-0.023193
28.043	-0.010529	-0.34592	-0.13123	-0.017395	0.006714	0.005341	0.12711	0.00473	0.007324	0.04303	-0.17273	0.007629	-0.048218	0.13229	-0.53741	-0.049744	0.001984	-0.30853	0.23972	-0.1741	0.30075	-0.79742	-0.09079	-0.22186	0.065002	0.002289	-0.1648	-0.023193	1.3583	0.19058	-0.002136	-0.016785
